
<svg width="136.95" height="33" viewBox="0 0 136.95 33" xmlns="http://www.w3.org/2000/svg"><g id="svgGroup" stroke-linecap="round" fill-rule="evenodd" font-size="9pt" stroke="#7FFFD4" stroke-width="0.1mm" fill="#7FFFD4" style="stroke:#7FFFD4;stroke-width:0.1mm;fill:#7FFFD4"><path d="M 106.755 13.398 L 106.755 25.08 L 102.531 25.08 L 102.531 14.256 Q 102.531 10.263 99.528 10.263 Q 97.937 10.263 97.018 11.044 A 2.926 2.926 0 0 0 96.459 11.682 A 4.856 4.856 0 0 0 95.896 12.927 Q 95.71 13.54 95.62 14.287 A 12.72 12.72 0 0 0 95.535 15.807 L 95.535 25.08 L 91.311 25.08 L 91.311 14.256 A 7.71 7.71 0 0 0 91.187 12.805 Q 90.732 10.445 88.612 10.276 A 4.243 4.243 0 0 0 88.275 10.263 A 4.986 4.986 0 0 0 87.122 10.387 A 2.866 2.866 0 0 0 85.173 11.83 A 5.767 5.767 0 0 0 84.685 13.074 Q 84.315 14.419 84.315 16.368 L 84.315 25.08 L 80.058 25.08 L 80.058 7.161 L 83.358 7.161 L 83.952 9.504 L 84.183 9.504 Q 85.008 8.118 86.427 7.475 Q 87.846 6.831 89.397 6.831 Q 91.41 6.831 92.796 7.508 Q 94.182 8.184 94.875 9.603 L 95.205 9.603 Q 96.063 8.151 97.548 7.491 Q 99.033 6.831 100.65 6.831 Q 103.686 6.831 105.221 8.399 A 4.693 4.693 0 0 1 106.242 10.053 Q 106.515 10.776 106.642 11.675 A 12.281 12.281 0 0 1 106.755 13.398 Z M 125.994 25.014 L 118.833 7.161 L 123.453 7.161 L 127.017 17.292 Q 127.347 18.216 127.562 19.124 Q 127.776 20.031 127.908 20.988 L 128.007 20.988 A 14.828 14.828 0 0 1 128.224 19.877 A 18.131 18.131 0 0 1 128.403 19.173 Q 128.667 18.216 128.964 17.259 L 132.396 7.161 L 136.95 7.161 L 129.327 27.423 A 11.522 11.522 0 0 1 128.389 29.412 Q 127.606 30.712 126.539 31.565 A 6.539 6.539 0 0 1 123.104 32.95 A 8.512 8.512 0 0 1 122.166 33 Q 121.374 33 120.764 32.918 A 17.868 17.868 0 0 1 120.258 32.842 Q 120.028 32.804 119.824 32.764 A 10.06 10.06 0 0 1 119.691 32.736 L 119.691 29.37 Q 120.054 29.436 120.566 29.502 Q 121.077 29.568 121.638 29.568 A 4.288 4.288 0 0 0 122.711 29.441 A 3.048 3.048 0 0 0 124.113 28.661 A 5.507 5.507 0 0 0 125.301 26.912 A 6.668 6.668 0 0 0 125.499 26.4 L 125.994 25.014 Z M 0 1.518 L 6.765 1.518 A 20.165 20.165 0 0 1 9.19 1.654 Q 12.044 2.001 13.646 3.234 A 5.5 5.5 0 0 1 15.655 6.436 A 8.734 8.734 0 0 1 15.873 8.448 Q 15.873 10.086 15.301 11.274 A 4.845 4.845 0 0 1 15.246 11.385 Q 14.619 12.606 13.58 13.415 Q 12.54 14.223 11.385 14.718 L 18.15 25.08 L 13.299 25.08 L 7.656 15.807 L 4.323 15.807 L 4.323 25.08 L 0 25.08 L 0 1.518 Z M 51.447 9.471 L 51.612 9.471 Q 51.561 9.092 51.482 8.442 A 251.045 251.045 0 0 1 51.43 8.019 Q 51.315 7.062 51.315 6.204 L 51.315 0 L 55.572 0 L 55.572 25.08 L 52.272 25.08 L 51.48 22.737 L 51.315 22.737 Q 50.556 23.859 49.302 24.635 A 4.837 4.837 0 0 1 47.917 25.204 Q 47.302 25.357 46.582 25.396 A 9.4 9.4 0 0 1 46.068 25.41 A 6.648 6.648 0 0 1 43.437 24.904 A 6.292 6.292 0 0 1 41.036 23.067 A 7.508 7.508 0 0 1 39.733 20.645 Q 39.37 19.56 39.217 18.233 A 18.015 18.015 0 0 1 39.105 16.17 A 17.504 17.504 0 0 1 39.286 13.565 Q 39.486 12.241 39.906 11.173 A 7.28 7.28 0 0 1 41.052 9.191 A 6.232 6.232 0 0 1 45.584 6.852 A 8.072 8.072 0 0 1 46.167 6.831 A 8.482 8.482 0 0 1 47.539 6.936 Q 48.281 7.057 48.891 7.321 A 4.54 4.54 0 0 1 49.418 7.59 A 6.629 6.629 0 0 1 50.857 8.735 A 5.887 5.887 0 0 1 51.447 9.471 Z M 36.003 14.949 L 36.003 17.127 L 24.222 17.127 Q 24.275 19.04 25.109 20.269 A 4.199 4.199 0 0 0 25.559 20.823 A 4.165 4.165 0 0 0 27.659 21.987 A 6.32 6.32 0 0 0 29.106 22.143 Q 30.822 22.143 32.208 21.813 A 13.923 13.923 0 0 0 33.979 21.259 A 17.222 17.222 0 0 0 35.079 20.79 L 35.079 24.156 Q 33.726 24.816 32.307 25.113 A 12.783 12.783 0 0 1 31.01 25.311 Q 30.352 25.379 29.605 25.4 A 24.428 24.428 0 0 1 28.908 25.41 Q 26.268 25.41 24.239 24.404 Q 22.209 23.397 21.054 21.351 A 8.488 8.488 0 0 1 20.17 18.978 Q 19.95 17.972 19.909 16.812 A 15.27 15.27 0 0 1 19.899 16.269 A 15.395 15.395 0 0 1 20.045 14.086 Q 20.213 12.918 20.572 11.939 A 8.286 8.286 0 0 1 20.938 11.088 A 7.791 7.791 0 0 1 22.488 8.945 A 7.087 7.087 0 0 1 23.843 7.92 A 7.952 7.952 0 0 1 26.838 6.917 A 10.19 10.19 0 0 1 28.182 6.831 A 10.256 10.256 0 0 1 30.186 7.017 A 7.461 7.461 0 0 1 32.373 7.805 Q 34.122 8.778 35.063 10.593 Q 35.99 12.383 36.003 14.878 A 13.659 13.659 0 0 1 36.003 14.949 Z M 75.9 14.949 L 75.9 17.127 L 64.119 17.127 Q 64.172 19.04 65.006 20.269 A 4.199 4.199 0 0 0 65.456 20.823 A 4.165 4.165 0 0 0 67.556 21.987 A 6.32 6.32 0 0 0 69.003 22.143 Q 70.719 22.143 72.105 21.813 A 13.923 13.923 0 0 0 73.876 21.259 A 17.222 17.222 0 0 0 74.976 20.79 L 74.976 24.156 Q 73.623 24.816 72.204 25.113 A 12.783 12.783 0 0 1 70.907 25.311 Q 70.249 25.379 69.502 25.4 A 24.428 24.428 0 0 1 68.805 25.41 Q 66.165 25.41 64.136 24.404 Q 62.106 23.397 60.951 21.351 A 8.488 8.488 0 0 1 60.067 18.978 Q 59.847 17.972 59.806 16.812 A 15.27 15.27 0 0 1 59.796 16.269 A 15.395 15.395 0 0 1 59.942 14.086 Q 60.11 12.918 60.469 11.939 A 8.286 8.286 0 0 1 60.835 11.088 A 7.791 7.791 0 0 1 62.385 8.945 A 7.087 7.087 0 0 1 63.74 7.92 A 7.952 7.952 0 0 1 66.735 6.917 A 10.19 10.19 0 0 1 68.079 6.831 A 10.256 10.256 0 0 1 70.083 7.017 A 7.461 7.461 0 0 1 72.27 7.805 Q 74.019 8.778 74.96 10.593 Q 75.887 12.383 75.9 14.878 A 13.659 13.659 0 0 1 75.9 14.949 Z M 116.193 0 L 116.193 25.08 L 111.936 25.08 L 111.936 0 L 116.193 0 Z M 51.546 16.731 L 51.546 16.203 A 14.661 14.661 0 0 0 51.466 14.618 Q 51.277 12.881 50.639 11.814 Q 49.731 10.296 47.322 10.296 A 3.573 3.573 0 0 0 45.962 10.545 Q 45.127 10.885 44.552 11.69 A 4.221 4.221 0 0 0 44.435 11.863 Q 43.428 13.431 43.428 16.236 Q 43.428 18.005 43.828 19.242 A 4.889 4.889 0 0 0 44.435 20.509 A 3.225 3.225 0 0 0 46.779 21.942 A 4.484 4.484 0 0 0 47.355 21.978 A 6.403 6.403 0 0 0 48.515 21.881 Q 49.918 21.622 50.589 20.675 A 4.303 4.303 0 0 0 51.147 19.537 Q 51.501 18.473 51.542 16.939 A 14.905 14.905 0 0 0 51.546 16.731 Z M 6.468 5.115 L 4.323 5.115 L 4.323 12.276 L 6.567 12.276 Q 8.889 12.276 10.059 11.53 A 2.873 2.873 0 0 0 10.329 11.336 A 3.035 3.035 0 0 0 11.387 9.556 A 4.669 4.669 0 0 0 11.484 8.58 Q 11.484 7.274 10.895 6.493 A 2.461 2.461 0 0 0 10.263 5.907 Q 9.042 5.115 6.468 5.115 Z M 24.321 14.19 L 31.911 14.19 A 6.462 6.462 0 0 0 31.754 12.847 Q 31.53 11.878 30.987 11.154 Q 30.114 9.991 28.293 9.967 A 5.86 5.86 0 0 0 28.215 9.966 A 4.193 4.193 0 0 0 26.978 10.14 A 3.333 3.333 0 0 0 25.542 11.022 A 3.784 3.784 0 0 0 24.784 12.196 Q 24.429 13.035 24.321 14.19 Z M 64.218 14.19 L 71.808 14.19 A 6.462 6.462 0 0 0 71.651 12.847 Q 71.427 11.878 70.884 11.154 Q 70.011 9.991 68.19 9.967 A 5.86 5.86 0 0 0 68.112 9.966 A 4.193 4.193 0 0 0 66.875 10.14 A 3.333 3.333 0 0 0 65.439 11.022 A 3.784 3.784 0 0 0 64.681 12.196 Q 64.326 13.035 64.218 14.19 Z" vector-effect="non-scaling-stroke"/></g></svg>